<svg width="199" height="24" viewBox="0 0 199 24" fill="none" xmlns="http://www.w3.org/2000/svg">
<path d="M19.1192 2.94131C18.7268 3.52596 18.3413 4.08819 17.9629 4.628C19.0059 4.68093 20.0179 5.02465 20.8986 5.62507C21.2608 3.86377 21.833 2.15958 22.6011 0.55433V0.55433C22.657 0.441706 22.7064 0.329616 22.7203 0.291719C22.728 0.264748 22.728 0.235957 22.7203 0.208986C22.7203 0.208986 22.6216 0.067005 22.005 0.00562237C21.122 -0.0771108 20.6038 0.752889 19.3916 2.51751L19.1192 2.94131Z" fill="#FFFFFF"/>
<path d="M39.8658 11.1634C38.8974 11.7336 37.9615 12.3645 37.0628 13.0529L32.2839 12.9857L34.7995 14.2977L33.1179 15.4148L31.4972 14.7471L30.7988 15.1442L31.8219 16.5011V17.4159L35.2485 15.504V16.7717L37.4334 14.7925L41.6376 12.7007C41.7322 12.6539 41.8143 12.5826 41.8765 12.4931C41.9387 12.4037 41.9789 12.299 41.9935 12.1887C42.0082 12.0783 41.9967 11.9658 41.9603 11.8614C41.9238 11.757 41.8635 11.664 41.7848 11.591C41.5539 11.3027 41.2402 11.1044 40.8928 11.0271C40.5454 10.9499 40.1839 10.998 39.8648 11.164L39.8658 11.1634Z" fill="#FFFFFF"/>
<path d="M27.8077 18.3996C26.2454 19.0967 24.1363 19.9593 22.5315 20.5662C19.6793 21.7543 16.6573 22.4087 13.5978 22.5005H13.5479C10.4087 22.5005 8.13845 20.4189 7.75334 18.3841C7.69763 18.0249 7.67176 17.661 7.67602 17.2969C7.3398 17.5066 7.01755 17.6865 6.71625 17.844C6.21193 18.0916 5.72805 18.3164 5.26562 18.5037C5.27514 18.6779 5.29851 18.851 5.33546 19.0209C5.68465 21.3161 7.82967 23.3172 9.61651 23.7517C11.6119 24.232 14.2622 24.0143 17.4982 23.1143C19.887 22.443 22.2082 21.5213 24.4281 20.3628C25.4891 19.8093 26.7497 19.0802 27.8077 18.3996Z" fill="#FFFFFF"/>
<path d="M39.7049 4.40835C39.8228 4.13014 39.8795 3.82676 39.8709 3.52145C39.8622 3.21614 39.7884 2.917 39.655 2.64694C39.5154 2.37892 39.3125 2.15478 39.0667 1.99687C38.8208 1.83896 38.5405 1.75281 38.2538 1.74701C36.2988 1.62692 33.4609 2.92396 29.8453 5.64348C26.8468 7.89435 20.8632 14.8519 20.8068 14.9176L20.4706 15.3072V14.7735C20.4706 14.7735 20.4287 13.9264 20.5125 11.0249C20.3766 10.9737 20.2489 10.9004 20.1339 10.8076C19.9288 10.667 19.7672 10.4645 19.6695 10.2256C19.5719 9.98682 19.5425 9.7224 19.5852 9.46575C19.6561 9.19499 19.7769 8.94216 19.9405 8.72215C20.1041 8.50214 20.3073 8.31941 20.538 8.18472V8.13988C20.2366 7.77334 19.8626 7.48348 19.4431 7.29148C19.0237 7.09949 18.5694 7.01021 18.1136 7.03019C17.4033 6.99524 16.6925 7.08908 16.0115 7.30775C13.99 9.94722 11.7437 12.3801 9.30157 14.5749L8.79025 15.0249L8.37671 15.3772C5.09734 18.0668 3.05808 18.1586 2.97427 18.1586H2.67497L2.77473 17.8661C2.89238 17.5652 2.93612 17.2371 2.90181 16.913C2.86749 16.5889 2.75626 16.2796 2.57869 16.0145C2.41411 15.8098 2.20093 15.6565 1.96167 15.5707C1.72241 15.4849 1.46594 15.4699 1.21935 15.5272C1.03033 15.5525 0.848845 15.622 0.687794 15.7309C0.526742 15.8397 0.390077 15.9852 0.287514 16.157C0.153249 16.3758 0.0632878 16.6222 0.0234229 16.8804C-0.0164419 17.1387 -0.0053271 17.403 0.0560517 17.6563C0.111871 17.8552 0.208909 18.038 0.339935 18.1911C0.47096 18.3443 0.632595 18.4638 0.812793 18.5408C1.51117 18.8706 3.11794 19.1706 6.53051 17.4386C7.02596 17.1823 7.5079 16.8972 7.97415 16.5845L8.0824 16.5189L8.26448 16.3913L8.48147 16.2413L8.55879 16.1815L8.65856 16.1218H8.69348C11.3748 14.0334 13.8637 11.676 16.1262 9.08144L16.4624 8.69179V9.21648C16.4624 9.42625 16.7777 14.3225 16.8056 16.2621C16.8615 19.4711 17.282 20.1682 17.504 20.3033C17.726 20.4383 18.2024 20.4383 19.5078 19.0137C19.6271 18.8861 20.0965 18.2664 20.748 17.5144L20.7899 17.461C22.8007 14.9646 26.5425 10.316 28.5887 8.32136C30.9589 6.04198 33.7438 4.31143 36.7687 3.23834L37.105 3.14814L37.063 3.49295C37.063 3.54633 36.888 4.88767 37.6517 5.10491C38.0199 5.21967 38.4118 5.21467 38.7774 5.09055C39.143 4.96642 39.4659 4.72877 39.7049 4.40782V4.40835Z" fill="#FFFFFF"/>
<path d="M22.2289 8.18645C21.5305 6.10478 19.8345 5.05273 17.254 5.05273C16.3099 5.06465 15.3699 5.18781 14.451 5.41996C11.3151 6.40614 8.58366 8.49932 6.7015 11.3586C5.63815 13.0126 5.08679 14.9821 5.12517 16.9893C6.11598 16.4758 7.05519 15.8554 7.92815 15.1376C8.59253 13.3001 9.66519 11.6634 11.0534 10.369C14.2205 7.10772 16.1056 6.50777 18.1095 6.58303C20.3238 6.66576 21.0103 8.08237 21.0382 8.1651L21.138 8.38234L20.9279 8.47255C20.7067 8.57309 20.5078 8.72262 20.3445 8.91131C20.1811 9.1 20.0569 9.32357 19.9801 9.5673C19.9349 9.73847 19.9402 9.92044 19.9954 10.0882C20.0506 10.2561 20.1529 10.4015 20.2884 10.5046C20.4978 10.6473 20.7408 10.7232 20.9891 10.7232C21.2373 10.7232 21.4803 10.6473 21.6897 10.5046C22.39 10.1139 22.5162 9.00471 22.2289 8.18645Z" fill="#FFFFFF"/>
<path d="M65.1963 18H62.4603L57.8843 11.072V18H55.1483V6.768H57.8843L62.4603 13.728V6.768H65.1963V18ZM75.5955 13.392C75.5955 13.648 75.5795 13.9147 75.5475 14.192H69.3555C69.3982 14.7467 69.5742 15.1733 69.8835 15.472C70.2035 15.76 70.5928 15.904 71.0515 15.904C71.7342 15.904 72.2088 15.616 72.4755 15.04H75.3875C75.2382 15.6267 74.9662 16.1547 74.5715 16.624C74.1875 17.0933 73.7022 17.4613 73.1155 17.728C72.5288 17.9947 71.8728 18.128 71.1475 18.128C70.2728 18.128 69.4942 17.9413 68.8115 17.568C68.1288 17.1947 67.5955 16.6613 67.2115 15.968C66.8275 15.2747 66.6355 14.464 66.6355 13.536C66.6355 12.608 66.8222 11.7973 67.1955 11.104C67.5795 10.4107 68.1128 9.87733 68.7955 9.504C69.4782 9.13067 70.2622 8.944 71.1475 8.944C72.0115 8.944 72.7795 9.12533 73.4515 9.488C74.1235 9.85067 74.6462 10.368 75.0195 11.04C75.4035 11.712 75.5955 12.496 75.5955 13.392ZM72.7955 12.672C72.7955 12.2027 72.6355 11.8293 72.3155 11.552C71.9955 11.2747 71.5955 11.136 71.1155 11.136C70.6568 11.136 70.2675 11.2693 69.9475 11.536C69.6382 11.8027 69.4462 12.1813 69.3715 12.672H72.7955ZM89.8549 9.072L87.4389 18H84.4149L83.0069 12.208L81.5509 18H78.5429L76.1109 9.072H78.8469L80.1109 15.456L81.6149 9.072H84.5109L86.0309 15.424L87.2789 9.072H89.8549ZM93.8249 12.368C93.8249 11.2587 94.0649 10.272 94.5449 9.408C95.0249 8.53333 95.6915 7.856 96.5449 7.376C97.4089 6.88533 98.3849 6.64 99.4729 6.64C100.806 6.64 101.948 6.992 102.897 7.696C103.846 8.4 104.481 9.36 104.801 10.576H101.793C101.569 10.1067 101.249 9.74933 100.833 9.504C100.428 9.25867 99.9635 9.136 99.4409 9.136C98.5982 9.136 97.9155 9.42933 97.3929 10.016C96.8702 10.6027 96.6089 11.3867 96.6089 12.368C96.6089 13.3493 96.8702 14.1333 97.3929 14.72C97.9155 15.3067 98.5982 15.6 99.4409 15.6C99.9635 15.6 100.428 15.4773 100.833 15.232C101.249 14.9867 101.569 14.6293 101.793 14.16H104.801C104.481 15.376 103.846 16.336 102.897 17.04C101.948 17.7333 100.806 18.08 99.4729 18.08C98.3849 18.08 97.4089 17.84 96.5449 17.36C95.6915 16.8693 95.0249 16.192 94.5449 15.328C94.0649 14.464 93.8249 13.4773 93.8249 12.368ZM114.892 13.392C114.892 13.648 114.876 13.9147 114.844 14.192H108.652C108.695 14.7467 108.871 15.1733 109.18 15.472C109.5 15.76 109.89 15.904 110.348 15.904C111.031 15.904 111.506 15.616 111.772 15.04H114.684C114.535 15.6267 114.263 16.1547 113.868 16.624C113.484 17.0933 112.999 17.4613 112.412 17.728C111.826 17.9947 111.17 18.128 110.444 18.128C109.57 18.128 108.791 17.9413 108.108 17.568C107.426 17.1947 106.892 16.6613 106.508 15.968C106.124 15.2747 105.932 14.464 105.932 13.536C105.932 12.608 106.119 11.7973 106.492 11.104C106.876 10.4107 107.41 9.87733 108.092 9.504C108.775 9.13067 109.559 8.944 110.444 8.944C111.308 8.944 112.076 9.12533 112.748 9.488C113.42 9.85067 113.943 10.368 114.316 11.04C114.7 11.712 114.892 12.496 114.892 13.392ZM112.092 12.672C112.092 12.2027 111.932 11.8293 111.612 11.552C111.292 11.2747 110.892 11.136 110.412 11.136C109.954 11.136 109.564 11.2693 109.244 11.536C108.935 11.8027 108.743 12.1813 108.668 12.672H112.092ZM121.776 8.976C122.821 8.976 123.653 9.31733 124.272 10C124.901 10.672 125.216 11.6 125.216 12.784V18H122.496V13.152C122.496 12.5547 122.341 12.0907 122.032 11.76C121.722 11.4293 121.306 11.264 120.784 11.264C120.261 11.264 119.845 11.4293 119.536 11.76C119.226 12.0907 119.072 12.5547 119.072 13.152V18H116.336V9.072H119.072V10.256C119.349 9.86133 119.722 9.552 120.192 9.328C120.661 9.09333 121.189 8.976 121.776 8.976ZM132.093 15.68V18H130.701C129.709 18 128.936 17.76 128.381 17.28C127.826 16.7893 127.549 15.9947 127.549 14.896V11.344H126.461V9.072H127.549V6.896H130.285V9.072H132.077V11.344H130.285V14.928C130.285 15.1947 130.349 15.3867 130.477 15.504C130.605 15.6213 130.818 15.68 131.117 15.68H132.093ZM142.433 9.072V18H139.697V16.784C139.42 17.1787 139.041 17.4987 138.561 17.744C138.092 17.9787 137.569 18.096 136.993 18.096C136.31 18.096 135.708 17.9467 135.185 17.648C134.662 17.3387 134.257 16.896 133.969 16.32C133.681 15.744 133.537 15.0667 133.537 14.288V9.072H136.257V13.92C136.257 14.5173 136.412 14.9813 136.721 15.312C137.03 15.6427 137.446 15.808 137.969 15.808C138.502 15.808 138.924 15.6427 139.233 15.312C139.542 14.9813 139.697 14.5173 139.697 13.92V9.072H142.433ZM147.134 10.56C147.454 10.0693 147.854 9.68533 148.334 9.408C148.814 9.12 149.348 8.976 149.934 8.976V11.872H149.182C148.5 11.872 147.988 12.0213 147.646 12.32C147.305 12.608 147.134 13.12 147.134 13.856V18H144.398V9.072H147.134V10.56ZM160.362 9.072L154.762 22.24H151.818L153.866 17.696L150.234 9.072H153.29L155.354 14.656L157.402 9.072H160.362ZM171.846 6.848V8.032H168.806V18H167.35V8.032H164.294V6.848H171.846ZM177.462 18.144C176.641 18.144 175.894 17.9573 175.222 17.584C174.561 17.2107 174.038 16.6827 173.654 16C173.281 15.3067 173.094 14.5067 173.094 13.6C173.094 12.704 173.286 11.9147 173.67 11.232C174.065 10.5387 174.598 10.0107 175.27 9.648C175.942 9.27467 176.694 9.088 177.526 9.088C178.358 9.088 179.11 9.27467 179.782 9.648C180.454 10.0107 180.982 10.5333 181.366 11.216C181.761 11.8987 181.958 12.6933 181.958 13.6C181.958 14.5067 181.756 15.3067 181.35 16C180.956 16.6827 180.417 17.2107 179.734 17.584C179.052 17.9573 178.294 18.144 177.462 18.144ZM177.462 16.864C177.985 16.864 178.476 16.7413 178.934 16.496C179.393 16.2507 179.761 15.8827 180.038 15.392C180.326 14.9013 180.47 14.304 180.47 13.6C180.47 12.896 180.332 12.2987 180.054 11.808C179.777 11.3173 179.414 10.9547 178.966 10.72C178.518 10.4747 178.033 10.352 177.51 10.352C176.977 10.352 176.486 10.4747 176.038 10.72C175.601 10.9547 175.249 11.3173 174.982 11.808C174.716 12.2987 174.582 12.896 174.582 13.6C174.582 14.3147 174.71 14.9173 174.966 15.408C175.233 15.8987 175.585 16.2667 176.022 16.512C176.46 16.7467 176.94 16.864 177.462 16.864ZM191.649 9.232V18H190.193V16.704C189.915 17.152 189.526 17.504 189.025 17.76C188.534 18.0053 187.99 18.128 187.393 18.128C186.71 18.128 186.097 17.9893 185.553 17.712C185.009 17.424 184.577 16.9973 184.257 16.432C183.947 15.8667 183.793 15.1787 183.793 14.368V9.232H185.233V14.176C185.233 15.04 185.451 15.7067 185.889 16.176C186.326 16.6347 186.923 16.864 187.681 16.864C188.459 16.864 189.073 16.624 189.521 16.144C189.969 15.664 190.193 14.9653 190.193 14.048V9.232H191.649ZM195.563 10.656C195.819 10.1547 196.182 9.76533 196.651 9.488C197.131 9.21067 197.712 9.072 198.395 9.072V10.576H198.011C196.379 10.576 195.563 11.4613 195.563 13.232V18H194.107V9.232H195.563V10.656Z" fill="#FFFFFF"/>
</svg>
